<svg xmlns="http://www.w3.org/2000/svg" width="331" height="331" overflow="hidden"><path fill="#1D1D1F" d="M174.341 170.195c0 29.398-15.319 48.003-39.788 48.003-24.47 0-39.788-18.605-39.788-48.003 0-29.5 15.319-48.003 39.788-48.003 24.47 0 39.788 18.502 39.788 48.003Zm155.657-78.738v148.018c0 11.72-.102 30.221-6.477 46.667-3.187 8.121-10.59 19.53-21.077 27.651-6.065 4.626-13.261 9.148-23.132 12.026-10.59 3.084-23.647 4.112-39.788 4.112H91.474c-16.14 0-29.198-1.028-39.788-4.214-9.87-2.98-17.066-7.4-23.132-12.027-10.487-8.018-17.89-19.53-21.077-27.65C1.103 269.696 1 251.194 1 239.475V91.457c0-11.718.103-30.22 6.477-46.667 3.187-8.12 10.59-19.53 21.077-27.65 6.066-4.626 13.262-9.149 23.132-12.027 10.59-3.083 23.647-4.11 39.789-4.11h148.05c16.243 0 29.197 1.027 39.787 4.213 9.87 2.981 17.17 7.401 23.132 12.027 10.487 8.017 17.89 19.53 21.077 27.65 6.375 16.344 6.477 34.846 6.477 46.564ZM65.874 229.917v-71.338H51.172v71.337Zm1.028-91.176a8.402 8.402 0 0 0-8.43-8.429 8.402 8.402 0 0 0-8.43 8.43c0 4.624 3.803 8.428 8.43 8.428 4.73-.103 8.43-3.804 8.43-8.429Zm122.758 31.454c0-37.93-21.179-61.777-55.107-61.777s-55.107 23.847-55.107 61.777 21.179 61.674 55.107 61.674 55.107-23.745 55.107-61.674Zm95.41 25.8c0-16.857-9.87-26.828-34.75-32.276l-13.263-2.878c-16.348-3.598-22.722-10.074-22.722-19.428 0-12.232 11.515-19.427 26.422-19.427 15.628 0 25.909 8.018 27.246 21.072h14.907c-.719-20.25-17.889-34.538-41.742-34.538-24.777 0-42.152 13.877-42.152 33.51 0 16.961 10.384 27.856 34.339 32.996l13.263 2.878c16.553 3.598 23.235 10.28 23.235 20.25 0 11.821-11.823 20.25-27.964 20.25-17.17 0-29.097-7.813-30.844-20.66h-14.908c1.44 20.66 18.815 34.022 44.93 34.022 26.627.103 44.003-13.67 44.003-35.77Z"/></svg>